<?xml version="1.0" encoding="utf-8"?>
<!-- Generator: Adobe Illustrator 24.1.2, SVG Export Plug-In . SVG Version: 6.00 Build 0)  -->
<svg version="1.1" id="Layer_1" xmlns="http://www.w3.org/2000/svg" xmlns:xlink="http://www.w3.org/1999/xlink" x="0px" y="0px"
	 viewBox="0 0 120 100" style="enable-background:new 0 0 120 100;" xml:space="preserve">
<style type="text/css">
	.st0{fill:#FFFFFF;}
</style>
<g>
	<path class="st0" d="M85.05,44.12c0,7.34-3.16,13.94-8.18,18.52c-1.28,1.16-2.68,2.2-4.18,3.08c-3.72,2.19-8.06,3.45-12.69,3.45
		c-0.41,0-0.82-0.01-1.23-0.03c-1.43-0.07-2.82-0.26-4.18-0.56C43.36,66.11,34.95,56.1,34.95,44.12c0-7.13,2.98-13.57,7.77-18.13
		v6.38c-2.28,3.35-3.62,7.4-3.62,11.75c0,4.36,1.33,8.41,3.62,11.75c0.07,0.11,0.15,0.22,0.23,0.33l0.01,0.01
		c1.76,2.48,4.05,4.56,6.71,6.08l0.01,0.01c0.32,0.18,0.65,0.36,0.99,0.53c0.56,0.28,1.12,0.53,1.7,0.76
		c0.73,0.29,1.48,0.53,2.24,0.73V36.45c0-0.3,0.07-0.58,0.19-0.84c0.08-0.18,0.19-0.34,0.31-0.49c0.25-0.3,0.59-0.52,0.98-0.64
		l5.48-1.69l7.65-2.35l1.19-0.37l2.29-0.7V6.5c0.06,0.04,0.13,0.08,0.19,0.12c1.51,1,2.86,2.24,3.99,3.68v35.56
		c-0.13,1.31-0.42,2.6-0.85,3.84l-0.01,0.02c-0.06,0.18-0.13,0.37-0.2,0.56c-0.05,0.13-0.1,0.25-0.16,0.4
		c-0.03,0.08-0.07,0.15-0.1,0.23l-0.1,0.22c0,0-0.05,0.1-0.07,0.14c-0.04,0.08-0.08,0.17-0.12,0.25l-0.02,0.03
		c-0.04,0.08-0.08,0.16-0.12,0.24l-0.03,0.05c-0.03,0.07-0.07,0.14-0.11,0.21l-0.03,0.05c-0.62,1.17-1.39,2.26-2.27,3.26V33.73
		l-5.1,1.57l-1.86,0.57l-2.39,0.74l-1.78,0.55l-2.57,0.79l-0.04,0.01l-0.17,0.05v26.97c0.25,0.02,0.5,0.03,0.75,0.03
		c0.16,0,0.32,0.01,0.47,0.01c0.92,0,1.83-0.06,2.72-0.18c0.21-0.03,0.42-0.06,0.62-0.09c1.47-0.24,2.89-0.62,4.25-1.15
		c0.39-0.15,0.78-0.32,1.16-0.49c1.41-0.65,2.73-1.45,3.95-2.38c0.91-0.69,1.75-1.46,2.53-2.29c0.59-0.62,1.14-1.28,1.64-1.98
		c0.58-0.79,1.11-1.63,1.57-2.5c0.07-0.12,0.13-0.24,0.19-0.36c0.06-0.12,0.12-0.23,0.17-0.35c0.05-0.1,0.1-0.21,0.15-0.32
		c0.03-0.07,0.06-0.13,0.09-0.19c0.04-0.08,0.08-0.17,0.12-0.26c0.04-0.1,0.09-0.21,0.13-0.31c0.06-0.15,0.12-0.3,0.18-0.45
		c0.09-0.24,0.18-0.48,0.27-0.72c0.75-2.15,1.16-4.47,1.16-6.88c0-0.64-0.03-1.28-0.09-1.91V30.17
		C83.49,34.16,85.05,38.96,85.05,44.12z M46.66,54.55V8.08c0-0.65,0.3-1.25,0.79-1.64c0.2-0.16,0.43-0.28,0.68-0.36l6.18-1.9
		l11.91-3.66C66.6,0.4,67,0.39,67.37,0.49c0.07,0.02,0.14,0.04,0.2,0.06c0.13,0.05,0.25,0.11,0.37,0.18
		c0.02,0.02,0.05,0.03,0.07,0.04c0.02,0.02,0.05,0.03,0.07,0.05c0,0,0.01,0,0.01,0.01c0.01,0.01,0.02,0.01,0.03,0.02
		c0.01,0.01,0.02,0.01,0.03,0.02c0.03,0.02,0.05,0.04,0.08,0.06c0.03,0.03,0.06,0.05,0.09,0.08c0.02,0.02,0.03,0.03,0.05,0.05
		c0.03,0.03,0.06,0.06,0.08,0.09c0.02,0.02,0.03,0.03,0.04,0.05c0.07,0.08,0.13,0.17,0.18,0.26c0.02,0.03,0.03,0.06,0.05,0.09
		c0.01,0.03,0.03,0.05,0.04,0.08c0,0,0,0,0,0.01c0.01,0.03,0.02,0.05,0.03,0.08c0.01,0.03,0.02,0.05,0.03,0.08
		c0.01,0.03,0.02,0.06,0.03,0.08c0.01,0.03,0.02,0.05,0.02,0.08c0.02,0.08,0.04,0.15,0.05,0.23c0,0.03,0.01,0.05,0.01,0.08v0
		c0,0.03,0.01,0.07,0.01,0.1c0,0.04,0,0.08,0,0.12v22.71c0,0.3-0.07,0.58-0.19,0.84c-0.08,0.18-0.19,0.34-0.31,0.49
		c-0.25,0.3-0.59,0.52-0.98,0.64l-5.48,1.69l-7.65,2.35l-1.19,0.37l-2.29,0.7v26.05c-0.06-0.04-0.13-0.08-0.19-0.12
		C49.14,57.23,47.8,55.99,46.66,54.55z M50.84,27.93l6.96-2.14l4.18-1.28l2.57-0.79l0.04-0.01l0.17-0.05V5.33l-3.58,1.1l-6.86,2.11
		l-3.48,1.07V27.93z M63.83,60.64c0.79-0.18,1.57-0.42,2.32-0.72l0.01-0.01c0.3-0.11,0.6-0.24,0.93-0.4
		c0.33-0.15,0.66-0.32,0.98-0.49v-19.6l-4.25,1.31V60.64z"/>
	<g>
		<path class="st0" d="M38.47,79.76c1.12,0,2.07,0.16,2.88,0.48c0.8,0.32,1.46,0.75,1.98,1.29c0.52,0.54,0.9,1.17,1.14,1.89
			c0.24,0.72,0.37,1.48,0.37,2.26c0,0.74-0.11,1.49-0.34,2.23c-0.23,0.74-0.59,1.41-1.1,2c-0.51,0.59-1.17,1.07-1.98,1.44
			c-0.81,0.37-1.8,0.56-2.95,0.56H32.3c-0.33,0-0.5,0.17-0.5,0.5v7.16h-3.46v-7.84c0-1.12,0.24-1.92,0.73-2.41
			c0.49-0.49,1.28-0.73,2.38-0.73h7.13c0.49,0,0.91-0.08,1.26-0.23c0.35-0.16,0.64-0.36,0.85-0.62c0.22-0.25,0.38-0.54,0.48-0.87
			c0.11-0.32,0.16-0.66,0.16-1.01c0-0.72-0.22-1.35-0.66-1.86c-0.44-0.52-1.13-0.78-2.07-0.78h-10.3v-3.46H38.47z"/>
		<path class="st0" d="M59.87,79.76c2.92,0,5.13,0.81,6.65,2.44c1.52,1.62,2.28,4.12,2.28,7.49c0,3.35-0.76,5.83-2.28,7.46
			c-1.52,1.62-3.73,2.44-6.65,2.44h-6.99c-1.1,0-1.64-0.54-1.64-1.61V81.38c0-1.08,0.55-1.61,1.64-1.61H59.87z M54.7,95.76
			c0,0.23,0.13,0.35,0.38,0.35h4.78c1.92,0,3.31-0.51,4.17-1.53c0.86-1.02,1.29-2.66,1.29-4.93c0-2.27-0.43-3.91-1.28-4.92
			c-0.85-1.01-2.25-1.51-4.18-1.51h-4.78c-0.25,0-0.38,0.12-0.38,0.35V95.76z"/>
		<path class="st0" d="M91.69,79.76v3.46h-7.66c-1.92,0-3.31,0.5-4.18,1.51c-0.87,1.01-1.31,2.66-1.31,4.95
			c0,2.27,0.43,3.91,1.29,4.92c0.86,1.01,2.26,1.51,4.2,1.51h7.66v3.46h-7.66c-2.9,0-5.11-0.82-6.65-2.45
			c-1.54-1.63-2.3-4.11-2.3-7.44c0-3.35,0.77-5.84,2.3-7.47c1.54-1.63,3.75-2.45,6.65-2.45H91.69z"/>
	</g>
</g>
</svg>
