<?xml version="1.0" encoding="utf-8"?>
<!-- Generator: Adobe Illustrator 24.1.2, SVG Export Plug-In . SVG Version: 6.00 Build 0)  -->
<svg version="1.1" id="Layer_1" xmlns="http://www.w3.org/2000/svg" xmlns:xlink="http://www.w3.org/1999/xlink" x="0px" y="0px"
	 viewBox="0 0 2000 2000" style="enable-background:new 0 0 2000 2000;" xml:space="preserve">
<style type="text/css">
	.st0{fill:#FFFFFF;}
</style>
<g>
	<g>
		<path class="st0" d="M1381.59,729.97c0,111.84-48.11,212.47-124.74,282.27c-19.47,17.75-40.79,33.51-63.63,46.96
			c-56.72,33.39-122.83,52.54-193.4,52.54c-6.28,0-12.51-0.15-18.71-0.45c-21.74-1.06-42.99-3.92-63.63-8.46
			c-171.25-37.65-299.43-190.28-299.43-372.86c0-108.72,45.45-206.82,118.4-276.35v97.23c-34.79,51.05-55.13,112.71-55.13,179.12
			c0,66.43,20.34,128.11,55.13,179.14c1.12,1.68,2.29,3.35,3.46,4.98l0.08,0.11c26.85,37.82,61.74,69.51,102.19,92.58l0.15,0.08
			c4.92,2.8,9.93,5.49,15.02,8.04c8.46,4.24,17.12,8.1,25.98,11.6c11.09,4.35,22.5,8.1,34.15,11.2V613.06
			c0.06-4.5,1.06-8.84,2.86-12.77c1.21-2.69,2.82-5.2,4.73-7.44c3.84-4.52,8.93-7.98,14.87-9.8l83.59-25.73l116.66-35.89l18.14-5.58
			l34.89-10.73V156.63c0.95,0.62,1.91,1.25,2.86,1.87c22.99,15.23,43.52,34.13,60.77,56.1v541.89c-2.04,20-6.36,39.6-12.96,58.52
			l-0.13,0.32c-0.93,2.76-1.97,5.58-3.12,8.48c-0.76,1.95-1.57,3.88-2.44,6.02c-0.49,1.17-1,2.33-1.48,3.5l-1.48,3.31
			c0,0-0.7,1.53-1,2.16c-0.59,1.27-1.21,2.55-1.82,3.8l-0.25,0.53c-0.59,1.23-1.21,2.46-1.85,3.71l-0.4,0.78
			c-0.53,1.08-1.1,2.18-1.7,3.27l-0.4,0.76c-9.5,17.8-21.13,34.45-34.59,49.65V571.7l-77.78,23.93l-28.27,8.7l-36.44,11.22
			l-27.19,8.36l-39.22,12.07l-0.62,0.19l-2.59,0.81v410.97c3.82,0.23,7.64,0.38,11.47,0.47c2.4,0.06,4.81,0.08,7.23,0.08
			c14.04,0,27.87-0.91,41.42-2.67c3.18-0.4,6.34-0.87,9.48-1.4c22.44-3.58,44.1-9.52,64.71-17.58c5.98-2.31,11.86-4.84,17.65-7.51
			c21.44-9.88,41.59-22.08,60.13-36.29c13.81-10.54,26.7-22.19,38.58-34.83c8.93-9.52,17.33-19.58,25.05-30.14
			c8.87-12.07,16.88-24.8,23.99-38.09c1-1.8,1.95-3.65,2.86-5.47c0.91-1.76,1.78-3.52,2.63-5.28c0.78-1.59,1.55-3.2,2.31-4.81
			c0.47-1,0.91-1.97,1.36-2.97c0.59-1.29,1.17-2.61,1.76-3.92c0.68-1.57,1.36-3.16,2.01-4.75c0.95-2.29,1.89-4.6,2.8-6.91
			c1.44-3.65,2.8-7.32,4.07-11.03c11.45-32.83,17.67-68.11,17.67-104.84c0-9.82-0.45-19.51-1.34-29.1V517.44
			C1357.8,578.19,1381.59,651.3,1381.59,729.97z M796.59,888.92V180.66c0-9.95,4.62-19.07,12.11-24.99
			c3.01-2.38,6.49-4.24,10.33-5.43l94.22-28.99l181.52-55.85c5.71-1.76,11.73-1.85,17.35-0.36c1.06,0.25,2.08,0.57,3.1,0.95
			c1.93,0.72,3.8,1.61,5.58,2.72c0.36,0.23,0.7,0.45,1.04,0.68c0.36,0.23,0.7,0.47,1.04,0.72c0.06,0.02,0.11,0.06,0.17,0.11
			c0.15,0.11,0.28,0.21,0.4,0.32c0.15,0.08,0.28,0.21,0.4,0.32c0.42,0.3,0.81,0.64,1.19,0.98c0.47,0.4,0.89,0.81,1.34,1.23
			c0.25,0.25,0.51,0.49,0.74,0.74c0.45,0.47,0.87,0.93,1.25,1.4c0.23,0.25,0.47,0.53,0.68,0.83c1.02,1.27,1.93,2.63,2.74,4.03
			c0.25,0.45,0.49,0.89,0.72,1.34c0.21,0.42,0.42,0.83,0.59,1.27c0.02,0.02,0.02,0.06,0.04,0.08c0.19,0.4,0.36,0.81,0.51,1.21
			c0.17,0.4,0.32,0.83,0.47,1.23c0.17,0.42,0.32,0.85,0.42,1.27c0.13,0.38,0.23,0.78,0.34,1.17c0.32,1.15,0.57,2.33,0.72,3.52
			c0.06,0.4,0.13,0.78,0.17,1.19v0.06c0.06,0.51,0.11,1.02,0.13,1.53c0.04,0.62,0.06,1.25,0.06,1.87v346.16
			c-0.06,4.5-1.06,8.84-2.86,12.77c-1.21,2.69-2.82,5.2-4.73,7.44c-3.84,4.52-8.93,7.98-14.87,9.8l-83.59,25.73l-116.66,35.89
			l-18.18,5.6l-34.85,10.71v397c-0.95-0.62-1.91-1.25-2.86-1.89C834.36,929.79,813.83,910.9,796.59,888.92z M860.22,483.31
			l106.05-32.62l63.63-19.58l39.22-12.07l0.62-0.19l2.59-0.81V138.9l-54.53,16.78l-104.55,32.18l-53.03,16.31V483.31z
			 M1058.15,981.74c12.07-2.76,23.92-6.41,35.4-10.9l0.21-0.08c4.52-1.74,9.12-3.71,14.13-6.02c5.07-2.33,10.05-4.84,14.97-7.51
			V658.53l-64.71,19.9V981.74z"/>
		<g>
			<g>
				<path class="st0" d="M671.68,1273.21c17,0,31.61,2.46,43.84,7.38c12.23,4.92,22.29,11.48,30.2,19.68
					c7.9,8.21,13.71,17.82,17.45,28.86c3.73,11.04,5.59,22.52,5.59,34.45c0,11.34-1.72,22.67-5.15,34
					c-3.43,11.34-9.02,21.47-16.78,30.42c-7.76,8.95-17.83,16.26-30.2,21.92c-12.38,5.67-27.37,8.5-44.96,8.5h-93.95
					c-5.07,0-7.61,2.54-7.61,7.6v109.16h-52.79v-119.45c0-17,3.73-29.23,11.19-36.69c7.45-7.45,19.53-11.18,36.24-11.18h108.71
					c7.45,0,13.87-1.19,19.24-3.58c5.37-2.38,9.69-5.52,12.97-9.39c3.28-3.87,5.74-8.28,7.38-13.2c1.64-4.92,2.46-10.07,2.46-15.43
					c0-11.03-3.36-20.5-10.06-28.41c-6.71-7.9-17.23-11.86-31.54-11.86H516.89v-52.79H671.68z"/>
				<path class="st0" d="M997.81,1273.21c44.44,0,78.21,12.38,101.33,37.13c23.11,24.76,34.67,62.79,34.67,114.08
					c0,51-11.56,88.88-34.67,113.63c-23.12,24.76-56.89,37.13-101.33,37.13H891.33c-16.71,0-25.05-8.2-25.05-24.61v-252.77
					c0-16.4,8.35-24.61,25.05-24.61H997.81z M919.07,1517.03c0,3.58,1.94,5.37,5.82,5.37h72.92c29.22,0,50.4-7.75,63.53-23.26
					c13.12-15.51,19.69-40.56,19.69-75.16c0-34.59-6.49-59.57-19.46-74.93c-12.97-15.36-34.22-23.04-63.75-23.04h-72.92
					c-3.88,0-5.82,1.79-5.82,5.37V1517.03z"/>
				<path class="st0" d="M1482.76,1273.21V1326H1366c-29.23,0-50.48,7.68-63.75,23.04c-13.28,15.36-19.91,40.49-19.91,75.38
					c0,34.6,6.56,59.58,19.69,74.94c13.12,15.36,34.45,23.04,63.97,23.04h116.77v52.79H1366c-44.14,0-77.92-12.45-101.33-37.36
					c-23.42-24.9-35.12-62.7-35.12-113.41c0-51,11.7-88.95,35.12-113.86c23.41-24.9,57.19-37.36,101.33-37.36H1482.76z"/>
			</g>
		</g>
		<g>
			<g>
				<path class="st0" d="M194.74,1692.29h39.08c8.87,0,15.91,2.57,21.14,7.72c5.23,5.14,7.84,11.23,7.84,18.26
					c0,7.28-2.58,13.51-7.75,18.69c-5.17,5.19-12.2,7.78-21.11,7.78h-17.38v35.19h-21.83V1692.29z M216.57,1708.35v20.32h10.16
					c9.07,0,13.61-3.39,13.61-10.16c0-3.81-1.21-6.45-3.64-7.94s-6.57-2.23-12.42-2.23H216.57z"/>
				<path class="st0" d="M303.81,1692.29h39.15c8.49,0,15.39,2.46,20.7,7.37c5.31,4.91,7.97,10.86,7.97,17.84
					c0,9.65-5.02,16.8-15.06,21.44c4.4,2,8.58,7.39,12.54,16.17c3.96,8.78,7.79,17.05,11.48,24.83h-23.96
					c-1.43-2.89-3.92-8.39-7.48-16.5c-3.55-8.11-6.59-13.32-9.12-15.62c-2.53-2.3-5.24-3.45-8.12-3.45h-6.27v35.57h-21.83V1692.29z
					 M325.64,1708.35v19.95h11.54c3.68,0,6.6-0.87,8.75-2.6c2.15-1.73,3.23-4.21,3.23-7.43c0-6.61-4.16-9.91-12.48-9.91H325.64z"/>
				<path class="st0" d="M481.31,1763.87v16.06H416.7v-87.64h63.74v16.06h-41.9v18.38h39.96v16.06h-39.96v21.08H481.31z"/>
				<path class="st0" d="M570.84,1724.79l28.17-32.5h18.98v87.64h-21.83v-54.7l-23.68,27.48h-3.28l-23.67-27.48v54.7h-21.83v-87.64
					h18.95L570.84,1724.79z"/>
				<path class="st0" d="M685.64,1692.29v87.64h-21.83v-87.64H685.64z"/>
				<path class="st0" d="M796.53,1692.29h21.83v49.75c0,12.8-3.79,22.5-11.35,29.11c-7.57,6.61-18.38,9.91-32.43,9.91
					c-13.89,0-24.66-3.35-32.34-10.04c-7.67-6.69-11.51-16.31-11.51-28.86v-49.87h21.89v50.37c0,6.11,2,11,5.99,14.68
					c3.99,3.68,9.23,5.52,15.71,5.52c6.73,0,12.12-1.88,16.15-5.65c4.04-3.76,6.05-9.12,6.05-16.06V1692.29z"/>
				<path class="st0" d="M910.14,1724.79l28.17-32.5h18.98v87.64h-21.83v-54.7l-23.68,27.48h-3.28l-23.67-27.48v54.7H863v-87.64
					h18.96L910.14,1724.79z"/>
				<path class="st0" d="M1063.63,1692.29h38.64c14.93,0,26.73,4.09,35.41,12.26c8.68,8.18,13.02,18.75,13.02,31.71
					c0,13.59-4.4,24.27-13.21,32.02c-8.8,7.76-21.36,11.64-37.67,11.64h-36.2V1692.29z M1085.46,1708.35v55.52h14.24
					c9.24,0,16.31-2.54,21.2-7.62c4.89-5.08,7.34-11.78,7.34-20.11c0-8.62-2.48-15.4-7.43-20.36c-4.96-4.96-12.08-7.43-21.36-7.43
					H1085.46z"/>
				<path class="st0" d="M1257.32,1763.87v16.06h-64.61v-87.64h63.74v16.06h-41.9v18.38h39.96v16.06h-39.96v21.08H1257.32z"/>
				<path class="st0" d="M1359.17,1697.94v17.13c-11.63-5.23-20.89-7.84-27.79-7.84c-3.93,0-7.06,0.66-9.38,1.98
					c-2.32,1.32-3.48,3.06-3.48,5.24c0,1.67,0.84,3.26,2.51,4.77c1.67,1.51,5.75,3.45,12.23,5.83c6.48,2.38,11.67,4.6,15.56,6.65
					c3.89,2.05,7.25,4.94,10.07,8.66c2.82,3.72,4.24,8.43,4.24,14.11c0,8.11-3.08,14.58-9.25,19.39
					c-6.17,4.81-14.29,7.21-24.37,7.21c-10.87,0-21.41-2.82-31.62-8.47v-18.88c5.86,3.93,11.04,6.8,15.56,8.59
					c4.52,1.8,9.31,2.7,14.37,2.7c8.57,0,12.86-2.7,12.86-8.09c0-1.84-0.86-3.57-2.57-5.2c-1.71-1.63-5.85-3.62-12.39-5.96
					c-6.55-2.34-11.73-4.51-15.56-6.52c-3.83-2.01-7.13-4.87-9.91-8.6c-2.78-3.72-4.17-8.49-4.17-14.31c0-7.53,3.03-13.61,9.1-18.23
					c6.06-4.62,14.18-6.93,24.34-6.93C1338.87,1691.17,1348.76,1693.42,1359.17,1697.94z"/>
				<path class="st0" d="M1482.1,1692.29v16.06h-31.74v71.58h-21.83v-71.58h-31.74v-16.06H1482.1z"/>
				<path class="st0" d="M1543.68,1692.29v87.64h-21.83v-87.64H1543.68z"/>
				<path class="st0" d="M1678.34,1692.29v87.64h-18.44l-48.37-56.15v56.15h-21.83v-87.64h20.02l46.79,53.57v-53.57H1678.34z"/>
				<path class="st0" d="M1748.52,1779.93v-40.89l-34.57-46.74h26.46l19.02,27.54l19.09-27.54h26.39l-34.57,46.77v40.87H1748.52z"/>
				<path class="st0" d="M377.66,1907.38v19.13c-10.96,5.81-22.44,8.72-34.44,8.72c-15.56,0-27.95-4.3-37.17-12.89
					s-13.83-19.19-13.83-31.77c0-12.59,4.86-23.27,14.59-32.06s22.43-13.17,38.11-13.17c12.5,0,23.09,2.57,31.74,7.72v19.51
					c-10.62-5.98-20.68-8.97-30.17-8.97c-9.33,0-16.95,2.5-22.87,7.5c-5.92,5-8.88,11.37-8.88,19.1c0,7.78,2.92,14.2,8.75,19.26
					c5.83,5.06,13.31,7.59,22.43,7.59c4.52,0,8.87-0.6,13.05-1.79C363.15,1914.06,369.38,1911.43,377.66,1907.38z"/>
				<path class="st0" d="M467.22,1845.34c14.93,0,27.02,4.51,36.26,13.52c9.24,9.01,13.86,19.5,13.86,31.46
					c0,12.13-4.68,22.65-14.05,31.55c-9.37,8.91-21.39,13.36-36.07,13.36c-14.85,0-26.93-4.43-36.26-13.3
					c-9.33-8.87-13.99-19.41-13.99-31.62c0-12,4.63-22.5,13.9-31.49C440.13,1849.83,452.25,1845.34,467.22,1845.34z M467.22,1917.04
					c8.28,0,14.95-2.46,20.01-7.37c5.06-4.91,7.59-11.36,7.59-19.35c0-8.03-2.53-14.49-7.59-19.38c-5.06-4.89-11.73-7.34-20.01-7.34
					c-8.32,0-15.02,2.45-20.11,7.34c-5.08,4.89-7.62,11.35-7.62,19.38c0,7.99,2.54,14.44,7.62,19.35S458.9,1917.04,467.22,1917.04z"
					/>
				<path class="st0" d="M647.61,1846.47v87.64h-18.44l-48.37-56.15v56.15h-21.83v-87.64h20.02l46.79,53.57v-53.57H647.61z"/>
				<path class="st0" d="M752.47,1852.11v17.13c-11.63-5.23-20.89-7.84-27.79-7.84c-3.93,0-7.06,0.66-9.38,1.98
					c-2.32,1.32-3.48,3.06-3.48,5.24c0,1.67,0.84,3.26,2.51,4.77s5.75,3.45,12.23,5.83c6.48,2.38,11.67,4.6,15.56,6.65
					c3.89,2.05,7.25,4.94,10.07,8.66c2.82,3.72,4.24,8.43,4.24,14.11c0,8.11-3.08,14.58-9.25,19.38
					c-6.17,4.81-14.29,7.21-24.37,7.21c-10.87,0-21.41-2.82-31.62-8.47v-18.88c5.86,3.93,11.04,6.8,15.56,8.59
					c4.52,1.8,9.31,2.7,14.37,2.7c8.57,0,12.86-2.7,12.86-8.09c0-1.84-0.86-3.57-2.57-5.2c-1.71-1.63-5.85-3.62-12.39-5.96
					c-6.55-2.34-11.73-4.51-15.56-6.52c-3.83-2.01-7.13-4.87-9.91-8.6c-2.78-3.72-4.17-8.49-4.17-14.31c0-7.53,3.03-13.61,9.1-18.23
					c6.06-4.62,14.18-6.93,24.34-6.93C732.17,1845.34,742.06,1847.59,752.47,1852.11z"/>
				<path class="st0" d="M875.4,1846.47v16.06h-31.74v71.58h-21.83v-71.58h-31.74v-16.06H875.4z"/>
				<path class="st0" d="M914.4,1846.47h39.15c8.49,0,15.39,2.46,20.7,7.37c5.31,4.91,7.97,10.86,7.97,17.84
					c0,9.65-5.02,16.8-15.06,21.44c4.4,2,8.58,7.39,12.54,16.17c3.96,8.78,7.79,17.05,11.48,24.83h-23.96
					c-1.43-2.89-3.92-8.39-7.48-16.5c-3.55-8.11-6.59-13.32-9.12-15.62c-2.53-2.3-5.24-3.45-8.12-3.45h-6.27v35.57H914.4V1846.47z
					 M936.23,1862.53v19.95h11.54c3.68,0,6.6-0.87,8.75-2.6c2.15-1.73,3.23-4.21,3.23-7.43c0-6.61-4.16-9.91-12.48-9.91H936.23z"/>
				<path class="st0" d="M1088.2,1846.47h21.83v49.75c0,12.8-3.79,22.5-11.35,29.11c-7.57,6.61-18.38,9.91-32.43,9.91
					c-13.89,0-24.66-3.35-32.34-10.04c-7.67-6.69-11.51-16.31-11.51-28.86v-49.87h21.89v50.37c0,6.11,2,11,5.99,14.68
					c3.99,3.68,9.23,5.52,15.71,5.52c6.73,0,12.12-1.88,16.15-5.65c4.04-3.76,6.05-9.12,6.05-16.06V1846.47z"/>
				<path class="st0" d="M1236.35,1907.38v19.13c-10.96,5.81-22.44,8.72-34.44,8.72c-15.56,0-27.95-4.3-37.17-12.89
					s-13.83-19.19-13.83-31.77c0-12.59,4.86-23.27,14.59-32.06s22.43-13.17,38.11-13.17c12.5,0,23.09,2.57,31.74,7.72v19.51
					c-10.62-5.98-20.68-8.97-30.17-8.97c-9.33,0-16.95,2.5-22.87,7.5c-5.92,5-8.88,11.37-8.88,19.1c0,7.78,2.92,14.2,8.75,19.26
					c5.83,5.06,13.31,7.59,22.43,7.59c4.52,0,8.87-0.6,13.05-1.79C1221.84,1914.06,1228.07,1911.43,1236.35,1907.38z"/>
				<path class="st0" d="M1358.53,1846.47v16.06h-31.74v71.58h-21.83v-71.58h-31.74v-16.06H1358.53z"/>
				<path class="st0" d="M1420.11,1846.47v87.64h-21.83v-87.64H1420.11z"/>
				<path class="st0" d="M1512.49,1845.34c14.93,0,27.02,4.51,36.26,13.52c9.24,9.01,13.86,19.5,13.86,31.46
					c0,12.13-4.68,22.65-14.05,31.55c-9.37,8.91-21.39,13.36-36.07,13.36c-14.85,0-26.93-4.43-36.26-13.3
					c-9.33-8.87-13.99-19.41-13.99-31.62c0-12,4.63-22.5,13.9-31.49C1485.4,1849.83,1497.51,1845.34,1512.49,1845.34z
					 M1512.49,1917.04c8.28,0,14.95-2.46,20.01-7.37c5.06-4.91,7.59-11.36,7.59-19.35c0-8.03-2.53-14.49-7.59-19.38
					c-5.06-4.89-11.73-7.34-20.01-7.34c-8.32,0-15.02,2.45-20.11,7.34c-5.08,4.89-7.62,11.35-7.62,19.38
					c0,7.99,2.54,14.44,7.62,19.35C1497.46,1914.58,1504.16,1917.04,1512.49,1917.04z"/>
				<path class="st0" d="M1692.88,1846.47v87.64h-18.44l-48.37-56.15v56.15h-21.83v-87.64h20.02l46.79,53.57v-53.57H1692.88z"/>
			</g>
		</g>
	</g>
</g>
</svg>
